control3min_grf.mot
version=1
nRows=15
nColumns 19
inDegrees=yes
endheader
time	1_ground_force_vx	1_ground_force_vy	1_ground_force_vz	1_ground_force_px	1_ground_force_py	1_ground_force_pz	1_ground_torque_x	1_ground_torque_y	1_ground_torque_z	2_ground_force_vx	2_ground_force_vy	2_ground_force_vz	2_ground_force_px	2_ground_force_py	2_ground_force_pz	2_ground_torque_x	2_ground_torque_y	2_ground_torque_z
            1.253500	            7.953583	          748.361369	          -98.843088	           -0.228043	            0.006236	           -0.408173	            0.026812	            2.522807	           -0.333211	          -24.430108	          690.014753	           80.420246	           -0.192775	            0.005988	           -0.753961	            0.080936	           -2.286001	           -0.266430
            1.254000	            8.319724	          748.542720	          -99.072516	           -0.228329	            0.006238	           -0.408699	            0.027792	            2.500533	           -0.330955	          -23.966947	          691.489738	           80.378368	           -0.192974	            0.005988	           -0.753972	            0.078189	           -2.255888	           -0.262223
            1.254500	            9.052949	          749.984987	          -99.068153	           -0.228472	            0.006238	           -0.408648	            0.031939	            2.645950	           -0.349513	          -23.360555	          692.228622	           80.380737	           -0.193041	            0.005988	           -0.754059	            0.076728	           -2.273626	           -0.264011
            1.255000	            9.281918	          750.706290	          -99.111482	           -0.228499	            0.006239	           -0.408778	            0.032054	            2.592456	           -0.342267	          -23.313768	          692.229293	           80.239941	           -0.193039	            0.005987	           -0.753923	            0.077103	           -2.289343	           -0.265370
            1.255500	           10.107137	          752.328159	          -98.969002	           -0.228649	            0.006238	           -0.408708	            0.035993	            2.679132	           -0.352441	          -22.941669	          692.967544	           80.148553	           -0.193047	            0.005987	           -0.753953	            0.077258	           -2.333617	           -0.269906
            1.256000	           10.564866	          753.050294	          -99.196324	           -0.228885	            0.006238	           -0.408671	            0.036947	            2.633570	           -0.346910	          -22.664037	          693.890495	           79.823215	           -0.193232	            0.005987	           -0.753951	            0.077222	           -2.364263	           -0.271978
            1.256500	           11.114916	          753.410992	          -99.196143	           -0.229121	            0.006239	           -0.408868	            0.039671	            2.689061	           -0.354049	          -22.334050	          693.338861	           79.914960	           -0.193093	            0.005987	           -0.753808	            0.075836	           -2.354253	           -0.271354
            1.257000	           11.298873	          753.950615	          -98.919151	           -0.229238	            0.006239	           -0.408868	            0.038423	            2.563907	           -0.336387	          -22.105202	          694.813502	           79.732404	           -0.193475	            0.005986	           -0.754059	            0.075021	           -2.358084	           -0.270599
            1.257500	           12.215178	          754.492345	          -99.102532	           -0.229199	            0.006239	           -0.408986	            0.042842	            2.646225	           -0.347582	          -21.499598	          695.737470	           79.453862	           -0.193441	            0.005986	           -0.754004	            0.074008	           -2.394939	           -0.273504
            1.258000	           12.720799	          755.210949	          -98.504568	           -0.229118	            0.006239	           -0.408852	            0.045445	            2.697973	           -0.351905	          -21.077930	          695.738825	           79.500618	           -0.193600	            0.005985	           -0.753952	            0.073286	           -2.419018	           -0.276416
            1.258500	           13.086648	          755.753284	          -98.824139	           -0.229395	            0.006239	           -0.408906	            0.047052	            2.717245	           -0.355314	          -20.847749	          696.845306	           79.316749	           -0.193503	            0.005986	           -0.754107	            0.071879	           -2.402576	           -0.273467
            1.259000	           13.545290	          755.212288	          -98.781744	           -0.229411	            0.006240	           -0.409135	            0.049261	            2.746546	           -0.359248	          -20.659767	          696.662451	           79.128300	           -0.193832	            0.005985	           -0.754029	            0.073733	           -2.486346	           -0.282404
            1.259500	           13.911039	          756.295390	          -99.099012	           -0.229332	            0.006240	           -0.409156	            0.049351	            2.683024	           -0.351562	          -20.516019	          695.743198	           78.843386	           -0.193763	            0.005985	           -0.753927	            0.071806	           -2.435107	           -0.275953
            1.260000	           13.957436	          755.753846	          -98.918021	           -0.229611	            0.006240	           -0.409108	            0.048501	            2.626167	           -0.343730	          -20.240340	          697.218297	           78.613875	           -0.193864	            0.005985	           -0.754014	            0.072421	           -2.494685	           -0.281285
            1.260500	           13.866515	          755.932626	          -98.596025	           -0.229673	            0.006240	           -0.409203	            0.047737	            2.602400	           -0.339430	          -20.098500	          696.850858	           78.518645	           -0.193917	            0.005983	           -0.753674	            0.073412	           -2.545336	           -0.286799
